<svg width="32" height="32" viewBox="0 0 32 32" fill="none" xmlns="http://www.w3.org/2000/svg">
<path d="M16 8.4898C14.5146 8.4898 13.0626 8.93026 11.8276 9.75549C10.5925 10.5807 9.62991 11.7537 9.06148 13.126C8.49305 14.4983 8.34432 16.0083 8.6341 17.4652C8.92389 18.922 9.63916 20.2602 10.6895 21.3105C11.7398 22.3608 13.078 23.0761 14.5348 23.3659C15.9917 23.6557 17.5017 23.507 18.874 22.9385C20.2463 22.3701 21.4193 21.4075 22.2445 20.1724C23.0697 18.9374 23.5102 17.4854 23.5102 16C23.508 14.0089 22.716 12.0999 21.308 10.692C19.9001 9.28402 17.9911 8.49204 16 8.4898ZM16 21.551C14.9021 21.551 13.8289 21.2255 12.916 20.6155C12.0032 20.0056 11.2917 19.1386 10.8715 18.1243C10.4514 17.11 10.3415 15.9938 10.5556 14.917C10.7698 13.8403 11.2985 12.8512 12.0748 12.0748C12.8512 11.2985 13.8403 10.7698 14.917 10.5556C15.9938 10.3415 17.11 10.4514 18.1243 10.8715C19.1386 11.2917 20.0056 12.0032 20.6155 12.916C21.2255 13.8289 21.551 14.9021 21.551 16C21.5493 17.4717 20.964 18.8826 19.9233 19.9233C18.8826 20.964 17.4717 21.5493 16 21.551ZM23.1837 0H8.81633C6.47891 0.00267908 4.238 0.9324 2.5852 2.5852C0.9324 4.238 0.00267908 6.47891 0 8.81633V23.1837C0.00267908 25.5211 0.9324 27.762 2.5852 29.4148C4.238 31.0676 6.47891 31.9973 8.81633 32H23.1837C25.5211 31.9973 27.762 31.0676 29.4148 29.4148C31.0676 27.762 31.9973 25.5211 32 23.1837V8.81633C31.9973 6.47891 31.0676 4.238 29.4148 2.5852C27.762 0.9324 25.5211 0.00267908 23.1837 0ZM30.0408 23.1837C30.0388 25.0017 29.3157 26.7446 28.0302 28.0302C26.7446 29.3157 25.0017 30.0388 23.1837 30.0408H8.81633C6.99832 30.0388 5.25536 29.3157 3.96984 28.0302C2.68431 26.7446 1.96121 25.0017 1.95918 23.1837V8.81633C1.96121 6.99832 2.68431 5.25536 3.96984 3.96984C5.25536 2.68431 6.99832 1.96121 8.81633 1.95918H23.1837C25.0017 1.96121 26.7446 2.68431 28.0302 3.96984C29.3157 5.25536 30.0388 6.99832 30.0408 8.81633V23.1837ZM26.1224 7.5102C26.1224 7.83311 26.0267 8.14877 25.8473 8.41726C25.6679 8.68575 25.4129 8.89501 25.1146 9.01858C24.8163 9.14215 24.488 9.17448 24.1713 9.11149C23.8546 9.04849 23.5637 8.89299 23.3353 8.66466C23.107 8.43633 22.9515 8.14542 22.8885 7.82872C22.8255 7.51202 22.8578 7.18374 22.9814 6.88541C23.105 6.58709 23.3143 6.3321 23.5827 6.1527C23.8512 5.9733 24.1669 5.87755 24.4898 5.87755C24.9226 5.87807 25.3376 6.05025 25.6437 6.35632C25.9498 6.66239 26.1219 7.07736 26.1224 7.5102Z" fill="black"/>
</svg>
