<svg width="32" height="32" viewBox="0 0 32 32" fill="none" xmlns="http://www.w3.org/2000/svg">
<g clip-path="url(#clip0_0_61)">
<path d="M16 -0.0339355C7.15903 -0.0339355 -0.0349731 7.15806 -0.0349731 16.0001C-0.0349731 24.8421 7.15903 32.0341 16 32.0341C24.841 32.0341 32.035 24.8421 32.035 16.0001C32.035 7.15806 24.841 -0.0339355 16 -0.0339355ZM16 30.9661C7.74803 30.9661 1.03503 24.2521 1.03503 16.0001C1.03503 7.74806 7.74803 1.03406 16 1.03406C24.252 1.03406 30.965 7.74806 30.965 16.0001C30.965 24.2521 24.252 30.9661 16 30.9661Z" fill="black"/>
<path d="M24.794 11.0461C24.9049 10.8407 24.9963 10.6255 25.067 10.4031C25.0997 10.2999 25.1004 10.1892 25.0689 10.0857C25.0374 9.98215 24.9753 9.89059 24.8907 9.8231C24.8061 9.75561 24.703 9.71536 24.595 9.70768C24.4871 9.7 24.3793 9.72524 24.286 9.78006C23.7736 10.0845 23.2189 10.3113 22.64 10.4531C21.9373 9.81884 21.0246 9.46724 20.078 9.46606C19.5637 9.46646 19.0548 9.5707 18.5818 9.77253C18.1088 9.97435 17.6814 10.2696 17.3252 10.6406C16.9691 11.0116 16.6915 11.4507 16.5091 11.9316C16.3268 12.4125 16.2434 12.9252 16.264 13.4391C14.015 13.1559 11.9613 12.0179 10.529 10.2611C10.4741 10.1945 10.404 10.1422 10.3246 10.1085C10.2451 10.0749 10.1588 10.0609 10.0728 10.0678C9.98677 10.0746 9.90371 10.1022 9.83063 10.148C9.75755 10.1938 9.69662 10.2566 9.65301 10.3311C9.32503 10.894 9.14676 11.5316 9.13521 12.183C9.12365 12.8344 9.2792 13.4779 9.58701 14.0521C9.51151 14.0648 9.43899 14.0912 9.37301 14.1301C9.29215 14.1816 9.22558 14.2527 9.17944 14.3368C9.13331 14.4208 9.10908 14.5152 9.10901 14.6111C9.10901 15.7461 9.61401 16.7881 10.428 17.4961L10.393 17.5311C10.3316 17.6006 10.2893 17.6849 10.2703 17.7757C10.2514 17.8666 10.2565 17.9608 10.285 18.0491C10.4547 18.5786 10.7382 19.0646 11.1154 19.4731C11.4927 19.8817 11.9546 20.2028 12.469 20.4141C11.4126 20.9294 10.2304 21.1304 9.06301 20.9931C8.94301 20.9808 8.82235 21.0088 8.71992 21.0725C8.6175 21.1362 8.5391 21.232 8.49701 21.3451C8.45658 21.4589 8.45583 21.5831 8.49485 21.6975C8.53388 21.8118 8.6104 21.9097 8.71201 21.9751C10.299 22.9936 12.1453 23.5347 14.031 23.5341C20.211 23.5341 23.905 18.5141 23.905 13.6611L23.904 13.4971C24.5029 13.0295 25.0232 12.4691 25.445 11.8371C25.5089 11.7415 25.5403 11.6279 25.5346 11.5132C25.5289 11.3984 25.4864 11.2885 25.4133 11.1997C25.3403 11.111 25.2406 11.0481 25.1291 11.0205C25.0175 10.9928 24.9001 11.0018 24.794 11.0461ZM23.049 12.8011C22.9764 12.8532 22.9181 12.9228 22.8793 13.0033C22.8405 13.0838 22.8226 13.1728 22.827 13.2621C22.833 13.3941 22.836 13.5281 22.836 13.6601C22.836 17.9881 19.543 22.4651 14.032 22.4651C13.0491 22.4655 12.0731 22.3005 11.145 21.9771C12.2566 21.764 13.3008 21.2874 14.19 20.5871C14.2766 20.5188 14.3399 20.4255 14.3714 20.3199C14.4029 20.2143 14.4011 20.1015 14.366 19.997C14.331 19.8925 14.2646 19.8013 14.1758 19.736C14.087 19.6707 13.9802 19.6344 13.87 19.6321C13.4388 19.6238 13.0156 19.5144 12.6345 19.3125C12.2534 19.1107 11.9251 18.8221 11.676 18.4701C11.929 18.4531 12.177 18.4111 12.418 18.3461C12.5346 18.3148 12.6373 18.245 12.7091 18.148C12.781 18.0509 12.8178 17.9324 12.8136 17.8117C12.8094 17.6911 12.7645 17.5754 12.6861 17.4835C12.6077 17.3917 12.5005 17.3291 12.382 17.3061C11.895 17.207 11.4441 16.9774 11.0776 16.6419C10.711 16.3063 10.4426 15.8774 10.301 15.4011C10.567 15.4681 10.84 15.5071 11.113 15.5161C11.348 15.5151 11.566 15.3711 11.639 15.1451C11.712 14.9191 11.626 14.6701 11.427 14.5381C10.9565 14.2246 10.5942 13.7735 10.3896 13.2464C10.185 12.7193 10.1482 12.1419 10.284 11.5931C12.021 13.3754 14.3666 14.4367 16.852 14.5651C17.028 14.5661 17.182 14.5031 17.289 14.3741C17.396 14.2451 17.437 14.0741 17.399 13.9101C17.2622 13.3211 17.3234 12.7034 17.5731 12.1527C17.8227 11.6019 18.2469 11.1489 18.78 10.8635C19.3131 10.5782 19.9254 10.4765 20.5221 10.5742C21.1189 10.6719 21.6668 10.9636 22.081 11.4041C22.1431 11.4703 22.221 11.5197 22.3074 11.5475C22.3939 11.5753 22.4859 11.5807 22.575 11.5631C22.74 11.5301 22.903 11.4921 23.064 11.4481C22.9914 11.5024 22.916 11.5528 22.838 11.5991C22.7343 11.6626 22.6553 11.7595 22.6141 11.8739C22.5729 11.9884 22.5719 12.1134 22.6113 12.2285C22.6506 12.3435 22.728 12.4417 22.8307 12.5069C22.9333 12.5721 23.0551 12.6004 23.176 12.5871L23.358 12.5641C23.2578 12.6466 23.1547 12.7257 23.049 12.8011Z" fill="black"/>
</g>
<defs>
<clipPath id="clip0_0_61">
<rect width="32" height="32" fill="white"/>
</clipPath>
</defs>
</svg>
